# xmcd
#
# Track frame offsets: 
#        150
#        24183
#        54240
#        79355
#        94973
#        124270
#        148965
#        162105
#
# Disc length: 2479 seconds
#
# Revision: 0
# Processed by: cddbd v1.4PL0 Copyright (c) Steve Scherf et al.
# Submitted via: ExactAudioCopy v0.90a11
#
DISCID=6609ad08
DTITLE=Illinois Jacquet - The King!
DYEAR=1900
DGENRE=
TTITLE0=A Haunting Melody
TTITLE1=I Wish I Knew How It Would Feel To Be Free
TTITLE2=How High the Moon
TTITLE3=The King
TTITLE4=Blue and Sentimental
TTITLE5=Caravan
TTITLE6=A Haunting Melody (take 9)
TTITLE7=Blue and Sentimental (take 5)
EXTD=
EXTT0=
EXTT1=
EXTT2=
EXTT3=
EXTT4=
EXTT5=
EXTT6=
EXTT7=
PLAYORDER=
